<svg width="89" height="40" viewBox="0 0 89 40" fill="none" xmlns="http://www.w3.org/2000/svg">
<path d="M25.4302 27.872C26.2177 26.1422 27.1747 24.5785 28.2713 23.0833C29.4576 21.4708 30.7834 20.0049 32.2787 18.6758C33.9135 17.2294 35.658 15.9198 37.6518 14.9914C39.1172 14.3073 40.4928 14.7569 41.6492 15.6364C42.7856 16.4964 43.314 17.7571 43.0747 19.2035C42.7956 20.8453 42.1177 22.3699 41.4698 23.8944C40.8916 25.2431 40.1738 26.5233 39.3863 27.7742C37.6617 30.5008 35.5683 32.8952 33.0164 34.9279C31.3616 36.2375 29.6071 37.4004 27.713 38.3386C26.3274 39.0227 24.9418 39.7068 23.3866 39.9511C22.1804 40.1466 20.9842 39.9218 19.9475 39.4234C17.0267 38.0259 14.4747 36.0909 12.0523 33.9702C9.90905 32.0938 8.00504 30.022 6.37018 27.7351C4.64561 25.3213 3.25997 22.7022 2.13351 19.9365C1.16655 17.5617 0.36906 15.1478 0.0600327 12.6069C-0.318776 9.57731 2.25313 6.94843 5.55275 7.4957C7.59632 7.82798 9.28102 8.98117 10.9358 10.0953C12.4012 11.0823 13.7868 12.216 15.1226 13.3887C16.7874 14.8448 18.3026 16.428 19.6983 18.1187C21.5524 20.3665 23.0078 22.8781 24.3237 25.4581C24.7224 26.2301 24.9218 27.1097 25.4302 27.872ZM22.5493 39.6091C24.8421 39.7654 26.4969 38.0063 26.7261 36.1788C27.0551 33.589 26.2177 31.2436 25.3305 28.9176C24.6128 27.0217 23.7455 25.1747 22.7586 23.3765C21.5923 21.246 20.2067 19.2719 18.6316 17.4444C17.2858 15.8808 15.7806 14.4539 14.1956 13.1053C12.2716 11.483 10.2679 9.96822 8.02498 8.81503C7.1577 8.36548 6.27049 7.82798 5.22379 7.74002C2.7715 7.51525 0.0400954 9.69458 0.438841 12.5971C1.00705 16.7701 2.63194 20.5815 4.64561 24.2463C6.05118 26.8165 7.81563 29.1327 9.83927 31.2827C12.5009 34.0972 15.4715 36.5404 18.8709 38.4363C20.0272 39.0911 21.2334 39.8241 22.5493 39.6091ZM37.7016 29.3867C38.2599 29.074 38.3097 28.4486 38.7084 28.0967C39.0573 27.7938 38.9876 27.5104 38.8081 27.1781C38.1602 25.976 37.4524 24.8424 36.3858 23.9042C34.7011 22.4285 32.7472 21.7053 30.5541 21.4512C30.3149 21.4219 30.0656 21.4024 29.8862 21.6369C29.5373 22.106 29.1685 22.5653 28.7697 23.0833C32.9964 23.5622 35.987 25.6144 37.7016 29.3867ZM31.3815 20.2394C34.721 20.8356 37.3228 22.4481 39.1969 25.1649C39.4063 25.4679 39.4062 26.064 39.7552 26.0933C40.2636 26.1324 40.1041 25.4776 40.3433 25.1844C40.5726 24.8913 40.9015 24.6079 40.6324 24.1192C39.1869 21.4317 37.0337 19.6628 33.9733 18.9983C32.7173 18.7246 31.9896 19.0374 31.3815 20.2394ZM41.3501 23.0149C41.6691 22.4285 41.9582 21.8812 42.0878 21.246C42.1576 20.8746 42.028 20.5717 41.8286 20.2785C40.7221 18.6562 39.2767 17.4639 37.3727 16.7994C35.9471 16.301 35.1795 16.4867 34.1328 17.8255C37.3128 18.4901 39.6953 20.2199 41.3501 23.0149Z" fill="#242424"/>
<path d="M48.6669 26.4256C50.4713 25.6144 52.1659 25.0378 54.0799 25.4287C58.3365 26.2887 60.7788 30.4422 59.6923 34.3708C58.5957 38.319 54.0999 40.5668 50.3317 39.1693C47.1417 37.9868 45.3972 35.3481 45.4869 31.9863C45.5966 28.3606 45.8957 24.7446 46.4838 21.158C46.5636 20.6596 46.6234 20.1417 46.5935 19.6335C46.5536 19.008 46.8626 18.9787 47.3411 19.0666C48.657 19.3207 49.4345 20.4935 49.1753 21.9105C49.0358 22.6533 48.9062 23.3862 48.8663 24.1485C48.8165 24.8717 48.7367 25.5949 48.6669 26.4256ZM52.7341 36.7847C55.0868 36.9802 57.2001 34.8106 57.2101 32.4358C57.2101 29.9828 55.017 28.0087 52.7541 28.0381C50.3417 28.0674 48.2682 30.061 48.2682 32.4163C48.2582 34.7129 50.2719 36.9606 52.7341 36.7847Z" fill="#242424"/>
<path d="M67.528 39.5505C62.0851 39.5505 58.6858 34.1364 60.9586 29.3966C62.733 25.7025 66.9996 24.2366 70.9472 26.152C72.6718 26.9925 72.6518 29.2989 71.7248 30.2077C70.0799 31.8105 68.4351 33.4034 66.8202 35.0355C66.4713 35.3873 65.8333 35.7196 66.0526 36.3353C66.2919 36.9901 66.9797 36.7848 67.4981 36.7848C69.5018 36.8044 70.8276 35.8173 71.6251 34.0582C71.9042 33.4425 72.0836 32.7193 73.0107 32.6705C74.0275 32.6216 74.6855 33.3839 74.4562 34.3612C73.7883 37.3419 70.4588 39.7264 67.528 39.5505ZM63.062 32.6607C63.0819 32.7682 63.1019 33.0614 63.1816 33.3448C63.3511 33.9312 63.9393 34.1071 64.3579 33.6771C65.7934 32.2405 67.2189 30.7941 68.6544 29.3477C68.8737 29.123 69.2027 28.9373 69.0133 28.5366C68.8538 28.1946 68.5448 28.1164 68.2058 28.0675C65.5243 27.7157 63.052 29.7191 63.062 32.6607Z" fill="#242424"/>
<path d="M75.084 32.5044C74.8946 30.4032 75.732 28.6441 77.1974 27.2857C79.0017 25.6048 82.0122 24.5982 84.7935 25.81C85.581 26.1521 86.3785 26.4452 86.7673 27.2564C87.3554 28.4878 87.1361 29.5628 86.1293 30.5498C84.5343 32.1037 82.9493 33.6576 81.3643 35.2212C81.0553 35.5339 80.5867 35.8076 80.816 36.3646C81.0353 36.8923 81.5437 36.7262 81.9524 36.7653C84.2053 36.9901 85.8302 35.5632 86.5978 33.5989C86.9168 32.778 87.495 32.4848 88.3722 32.7291C89.0302 32.9148 89.4389 33.6282 89.2395 34.3319C88.4221 37.1855 85.7206 39.4039 82.6303 39.5408C79.8989 39.6678 77.8055 38.5146 76.2404 36.4721C75.3532 35.3482 74.9245 33.9605 75.084 32.5044ZM82.2415 28.0675C80.9456 27.9209 79.9687 28.5366 79.1413 29.2403C77.9251 30.2859 77.636 31.7225 77.8753 33.2764C77.9151 33.511 77.8852 33.7944 78.1943 33.8628C78.4933 33.9312 78.7724 33.9116 79.0217 33.6576C80.4771 32.2112 81.9524 30.7746 83.4079 29.3282C83.6072 29.1328 83.9063 28.9373 83.7568 28.5855C83.6072 28.2141 83.2683 28.0968 82.8995 28.0773C82.6702 28.0578 82.421 28.0675 82.2415 28.0675Z" fill="#242424"/>
<path d="M38.8478 1.53435C38.3893 1.56367 37.851 1.60276 37.3027 1.61253C36.8043 1.6223 36.4454 1.42685 36.4055 0.889344C36.3557 0.351841 36.575 0.0488847 37.1631 -0.0390704C40.3431 -0.517937 43.4633 -0.4593 46.5436 0.654797C50.1024 1.95458 52.9335 4.10459 55.0967 7.17324C56.7316 9.48939 57.5988 12.0694 57.9677 14.8253C57.9976 15.011 58.0076 15.2065 57.9976 15.3922C57.9577 15.8319 57.7384 16.174 57.2798 16.2522C56.8014 16.3303 56.602 15.959 56.4923 15.5876C56.1335 14.4637 55.8942 13.3106 55.4356 12.216C54.2095 9.28417 52.2856 6.8312 49.7137 4.96459C47.3611 3.25436 44.7393 2.00344 41.7387 1.73958C40.7917 1.66139 39.8646 1.54412 38.8478 1.53435Z" fill="#242424"/>
<path d="M39.3366 6.49898C38.898 6.5283 38.4594 6.53807 38.0207 6.59671C37.3329 6.68466 37.0139 6.25466 36.984 5.72693C36.9541 5.23829 37.2133 4.88647 37.8612 4.79851C40.6126 4.44669 43.2742 4.64215 45.7963 5.81488C47.3314 6.5283 48.6672 7.55444 49.8136 8.78581C51.0398 10.1051 51.8871 11.6492 52.5151 13.3106C52.8541 14.2195 52.9338 15.187 53.0435 16.1447C53.0933 16.5649 52.9239 16.9559 52.4553 17.0927C51.927 17.249 51.618 16.9168 51.4485 16.4868C51.2491 15.9883 51.0996 15.4704 50.9501 14.9524C49.9831 11.6883 47.8 9.38195 44.8493 7.80853C43.1845 6.91921 41.3104 6.40125 39.3366 6.49898Z" fill="#242424"/>
<path d="M40.1439 9.66535C43.9918 9.53831 47.5805 12.7145 48.0191 16.4281C48.0291 16.5356 48.049 16.6431 48.049 16.7506C48.049 17.2295 48.1487 17.7865 47.4808 17.9234C46.793 18.0699 46.5836 17.5618 46.4341 17.0536C46.0154 15.617 45.3076 14.3661 44.1313 13.3692C42.6659 12.1183 41.051 11.3756 39.0872 11.4342C38.4492 11.4538 37.6816 11.6101 37.552 10.672C37.4723 10.0954 38.1501 9.69467 39.157 9.66535C39.4859 9.65558 39.8149 9.66535 40.1439 9.66535Z" fill="#242424"/>
<path d="M22.5491 39.609C21.2332 39.824 20.027 39.0911 18.8607 38.4363C15.4614 36.5306 12.4907 34.0972 9.8291 31.2826C7.80547 29.1424 6.04102 26.8165 4.63544 24.2462C2.63174 20.5814 1.00686 16.7701 0.428675 12.5971C0.0299299 9.68478 2.76134 7.51523 5.21362 7.74C6.26033 7.83773 7.14754 8.37523 8.01481 8.81501C10.2578 9.96819 12.2614 11.483 14.1854 13.1053C15.7804 14.4539 17.2856 15.8807 18.6214 17.4444C20.1965 19.2719 21.5821 21.246 22.7485 23.3765C23.7353 25.1746 24.6026 27.0217 25.3204 28.9176C26.2076 31.2435 27.035 33.589 26.716 36.1788C26.4967 37.9965 24.8419 39.7654 22.5491 39.609Z" fill="#F2C94C"/>
<path d="M37.7016 29.3867C35.987 25.6242 32.9964 23.5719 28.7598 23.0833C29.1585 22.5653 29.5274 22.106 29.8763 21.6369C30.0557 21.4024 30.3049 21.4219 30.5442 21.4513C32.7373 21.6956 34.6911 22.4285 36.3758 23.9042C37.4524 24.8424 38.1502 25.976 38.7982 27.1781C38.9776 27.5104 39.0474 27.7938 38.6985 28.0967C38.3097 28.4388 38.2599 29.0642 37.7016 29.3867Z" fill="#F2C94C"/>
<path d="M31.3816 20.2395C31.9897 19.0375 32.7274 18.715 33.9734 18.9984C37.0338 19.6727 39.187 21.4318 40.6325 24.1193C40.8917 24.608 40.5727 24.8914 40.3434 25.1846C40.1042 25.4875 40.2636 26.1325 39.7552 26.0934C39.3964 26.0641 39.4063 25.4778 39.197 25.165C37.3229 22.4482 34.7211 20.8455 31.3816 20.2395Z" fill="#F2C94C"/>
<path d="M41.3501 23.015C39.6953 20.22 37.3128 18.4902 34.1228 17.8256C35.1695 16.4867 35.9371 16.3011 37.3626 16.7995C39.2666 17.464 40.7121 18.6563 41.8186 20.2786C42.018 20.5815 42.1575 20.8747 42.0778 21.2461C41.9582 21.8813 41.6691 22.4384 41.3501 23.015Z" fill="#F2C94C"/>
</svg>
